<?xml version="1.0" standalone="no"?>
<!DOCTYPE svg PUBLIC "-//W3C//DTD SVG 20010904//EN"
 "http://www.w3.org/TR/2001/REC-SVG-20010904/DTD/svg10.dtd">
<svg version="1.0" xmlns="http://www.w3.org/2000/svg"
 width="1043.000000pt" height="1043.000000pt" viewBox="0 0 1043.000000 1043.000000"
 preserveAspectRatio="xMidYMid meet">
<metadata>
Created by potrace 1.14, written by Peter Selinger 2001-2017
</metadata>
<g transform="translate(0.000000,1043.000000) scale(0.100000,-0.100000)"
fill="#000000" stroke="none">
<path d="M5007 10424 c-1 -1 -54 -5 -117 -8 -63 -4 -133 -9 -155 -11 -22 -2
-84 -9 -138 -15 -53 -6 -110 -13 -125 -16 -15 -2 -40 -6 -57 -9 -16 -2 -48 -7
-70 -11 -22 -3 -74 -12 -115 -21 -41 -8 -96 -19 -122 -23 -27 -5 -52 -11 -57
-14 -5 -3 -26 -8 -47 -12 -55 -9 -360 -97 -484 -140 -226 -78 -669 -269 -703
-303 -6 -6 -15 -11 -19 -11 -14 0 -248 -134 -366 -209 -137 -88 -261 -174
-366 -255 -43 -34 -90 -70 -105 -80 -108 -80 -319 -274 -491 -451 -523 -536
-927 -1192 -1177 -1910 -36 -104 -111 -345 -117 -380 -2 -11 -13 -58 -24 -105
-26 -107 -49 -214 -57 -260 -3 -19 -8 -46 -10 -60 -10 -46 -13 -65 -20 -120
-4 -30 -9 -62 -10 -70 -2 -8 -6 -44 -10 -80 -4 -36 -8 -72 -10 -80 -2 -8 -6
-55 -10 -105 -4 -49 -9 -110 -11 -135 -5 -66 -5 -543 0 -625 10 -141 24 -284
42 -405 28 -194 32 -218 60 -350 14 -63 27 -126 30 -140 3 -14 14 -59 25 -100
193 -727 517 -1374 978 -1949 128 -160 197 -237 366 -407 166 -168 283 -275
410 -377 33 -26 69 -55 80 -65 46 -37 257 -189 345 -247 264 -174 601 -353
865 -459 39 -16 84 -34 100 -41 38 -16 287 -107 300 -109 6 -1 35 -10 65 -19
264 -80 589 -152 830 -182 30 -4 62 -9 71 -10 8 -2 49 -6 91 -9 41 -4 84 -8
95 -10 82 -16 528 -23 733 -11 114 6 134 8 260 20 170 17 386 51 545 86 50 11
100 22 113 25 12 2 80 20 151 39 541 144 1077 388 1544 703 118 79 280 195
297 212 3 3 52 43 110 90 144 115 178 147 385 355 199 199 272 280 418 465
355 449 656 1013 840 1570 38 115 102 336 112 389 2 9 8 34 13 56 6 22 13 51
16 65 37 186 46 236 51 272 3 24 8 50 10 58 2 8 7 39 10 69 4 30 8 62 10 72 2
10 7 53 10 96 4 43 9 85 10 94 16 85 24 574 11 769 -8 140 -23 306 -31 350 -1
8 -6 40 -9 70 -8 64 -45 273 -61 350 -3 14 -7 34 -9 45 -2 11 -12 49 -21 85
-9 36 -19 74 -21 86 -17 93 -150 508 -197 616 -8 18 -27 65 -42 103 -33 82
-207 441 -260 535 -103 183 -357 569 -395 600 -3 3 -17 21 -30 40 -131 188
-497 573 -731 771 -37 31 -73 62 -80 68 -35 29 -197 155 -219 170 -14 8 -31
21 -38 28 -26 25 -330 222 -447 290 -342 198 -724 364 -1102 477 -143 43 -362
99 -432 111 -19 3 -37 7 -40 9 -3 2 -28 7 -56 10 -27 4 -57 9 -65 11 -14 4
-41 9 -105 19 -85 13 -113 17 -145 21 -19 2 -59 7 -88 10 -29 4 -74 8 -100 10
-26 2 -83 7 -127 10 -70 6 -552 14 -558 9z"/>
</g>
</svg>
